# xmcd
#
# Track frame offsets:
#	150
#	24236
#	77200
#	116220
#	158691
#	177229
#	209132
#	261184
#	294482
#
# Disc length: 4485 seconds
#
# Revision: 1
# Processed by: cddbd v1.5PL3 Copyright (c) Steve Scherf et al.
# Submitted via: CDmax 2.0
#
DISCID=7e118309
DTITLE=lonie walker - live in berlin
DYEAR=2002
DGENRE=Blues
TTITLE0=baby blue blues
TTITLE1=turtle blues
TTITLE2=i can't stop lovin' you
TTITLE3=song for raphael
TTITLE4=mercedes benz
TTITLE5=baby grand
TTITLE6=house of the rising sun - those were the days
TTITLE7=rainy nights in georgia
TTITLE8=earthquake and sugar
EXTD=
EXTT0=
EXTT1=
EXTT2=
EXTT3=
EXTT4=
EXTT5=
EXTT6=
EXTT7=
EXTT8=
PLAYORDER=
